<mxfile host="app.diagrams.net" modified="2023-04-27T03:06:20.851Z" agent="Mozilla/5.0 (Windows NT 10.0; Win64; x64) AppleWebKit/537.36 (KHTML, like Gecko) Chrome/112.0.0.0 Safari/537.36 Edg/112.0.1722.58" etag="wcvt1JwjqgKa3BDt3WHl" version="21.2.1" type="github">
  <diagram name="第 1 页" id="QqgJ5_7TUcEgrtFXRLnA">
    <mxGraphModel dx="993" dy="573" grid="0" gridSize="10" guides="1" tooltips="1" connect="1" arrows="1" fold="1" page="1" pageScale="1" pageWidth="827" pageHeight="1169" math="0" shadow="0">
      <root>
        <mxCell id="0" />
        <mxCell id="1" parent="0" />
        <mxCell id="p-GpuDRe2r2PLm1VDFdw-1" value="&lt;p class=&quot;MsoNormal&quot;&gt;&lt;font face=&quot;Helvetica&quot;&gt;检查记录&lt;/font&gt;&lt;font face=&quot;宋体&quot; color=&quot;#333333&quot;&gt;&lt;span style=&quot;font-size: 12.6667px; background-color: rgb(255, 255, 255);&quot;&gt;信息&lt;/span&gt;&lt;/font&gt;&lt;/p&gt;" style="rounded=0;whiteSpace=wrap;html=1;" parent="1" vertex="1">
          <mxGeometry x="330" y="340" width="120" height="60" as="geometry" />
        </mxCell>
        <mxCell id="p-GpuDRe2r2PLm1VDFdw-2" value="检查记录id" style="ellipse;whiteSpace=wrap;html=1;" parent="1" vertex="1">
          <mxGeometry x="150" y="130" width="90" height="40" as="geometry" />
        </mxCell>
        <mxCell id="p-GpuDRe2r2PLm1VDFdw-3" value="腹部" style="ellipse;whiteSpace=wrap;html=1;" parent="1" vertex="1">
          <mxGeometry x="150" y="180" width="90" height="40" as="geometry" />
        </mxCell>
        <mxCell id="p-GpuDRe2r2PLm1VDFdw-4" value="肝部" style="ellipse;whiteSpace=wrap;html=1;" parent="1" vertex="1">
          <mxGeometry x="150" y="230" width="90" height="40" as="geometry" />
        </mxCell>
        <mxCell id="p-GpuDRe2r2PLm1VDFdw-5" value="脾部" style="ellipse;whiteSpace=wrap;html=1;" parent="1" vertex="1">
          <mxGeometry x="150" y="280" width="90" height="40" as="geometry" />
        </mxCell>
        <mxCell id="p-GpuDRe2r2PLm1VDFdw-6" value="肾部" style="ellipse;whiteSpace=wrap;html=1;" parent="1" vertex="1">
          <mxGeometry x="150" y="320" width="90" height="40" as="geometry" />
        </mxCell>
        <mxCell id="p-GpuDRe2r2PLm1VDFdw-7" value="神经系统" style="ellipse;whiteSpace=wrap;html=1;" parent="1" vertex="1">
          <mxGeometry x="150" y="360" width="90" height="40" as="geometry" />
        </mxCell>
        <mxCell id="p-GpuDRe2r2PLm1VDFdw-8" value="骨骼肌肉系统" style="ellipse;whiteSpace=wrap;html=1;" parent="1" vertex="1">
          <mxGeometry x="150" y="410" width="90" height="40" as="geometry" />
        </mxCell>
        <mxCell id="p-GpuDRe2r2PLm1VDFdw-9" value="儿童id" style="ellipse;whiteSpace=wrap;html=1;" parent="1" vertex="1">
          <mxGeometry x="250" y="130" width="90" height="40" as="geometry" />
        </mxCell>
        <mxCell id="p-GpuDRe2r2PLm1VDFdw-10" value="体检日期" style="ellipse;whiteSpace=wrap;html=1;" parent="1" vertex="1">
          <mxGeometry x="350" y="130" width="90" height="40" as="geometry" />
        </mxCell>
        <mxCell id="p-GpuDRe2r2PLm1VDFdw-11" value="身高（单位：cm）" style="ellipse;whiteSpace=wrap;html=1;" parent="1" vertex="1">
          <mxGeometry x="450" y="130" width="90" height="40" as="geometry" />
        </mxCell>
        <mxCell id="p-GpuDRe2r2PLm1VDFdw-12" value="体重（单位：kg）" style="ellipse;whiteSpace=wrap;html=1;" parent="1" vertex="1">
          <mxGeometry x="550" y="130" width="90" height="40" as="geometry" />
        </mxCell>
        <mxCell id="p-GpuDRe2r2PLm1VDFdw-13" value="头围（单位：cm）" style="ellipse;whiteSpace=wrap;html=1;" parent="1" vertex="1">
          <mxGeometry x="550" y="180" width="90" height="40" as="geometry" />
        </mxCell>
        <mxCell id="p-GpuDRe2r2PLm1VDFdw-14" value="左眼视力（近视力）" style="ellipse;whiteSpace=wrap;html=1;" parent="1" vertex="1">
          <mxGeometry x="550" y="230" width="90" height="40" as="geometry" />
        </mxCell>
        <mxCell id="p-GpuDRe2r2PLm1VDFdw-15" value="右眼视力（近视力）" style="ellipse;whiteSpace=wrap;html=1;" parent="1" vertex="1">
          <mxGeometry x="550" y="280" width="90" height="40" as="geometry" />
        </mxCell>
        <mxCell id="p-GpuDRe2r2PLm1VDFdw-16" value="左耳听力" style="ellipse;whiteSpace=wrap;html=1;" parent="1" vertex="1">
          <mxGeometry x="550" y="330" width="90" height="40" as="geometry" />
        </mxCell>
        <mxCell id="p-GpuDRe2r2PLm1VDFdw-17" value="右耳听力" style="ellipse;whiteSpace=wrap;html=1;" parent="1" vertex="1">
          <mxGeometry x="550" y="380" width="90" height="40" as="geometry" />
        </mxCell>
        <mxCell id="p-GpuDRe2r2PLm1VDFdw-18" value="龋齿数目" style="ellipse;whiteSpace=wrap;html=1;" parent="1" vertex="1">
          <mxGeometry x="550" y="420" width="90" height="40" as="geometry" />
        </mxCell>
        <mxCell id="p-GpuDRe2r2PLm1VDFdw-19" value="皮肤" style="ellipse;whiteSpace=wrap;html=1;" parent="1" vertex="1">
          <mxGeometry x="150" y="450" width="90" height="40" as="geometry" />
        </mxCell>
        <mxCell id="p-GpuDRe2r2PLm1VDFdw-21" value="血压" style="ellipse;whiteSpace=wrap;html=1;" parent="1" vertex="1">
          <mxGeometry x="550" y="460" width="90" height="40" as="geometry" />
        </mxCell>
        <mxCell id="p-GpuDRe2r2PLm1VDFdw-22" value="淋巴结" style="ellipse;whiteSpace=wrap;html=1;" parent="1" vertex="1">
          <mxGeometry x="150" y="490" width="90" height="40" as="geometry" />
        </mxCell>
        <mxCell id="p-GpuDRe2r2PLm1VDFdw-23" value="心率" style="ellipse;whiteSpace=wrap;html=1;" parent="1" vertex="1">
          <mxGeometry x="550" y="510" width="90" height="40" as="geometry" />
        </mxCell>
        <mxCell id="p-GpuDRe2r2PLm1VDFdw-24" value="发育及营养状况" style="ellipse;whiteSpace=wrap;html=1;" parent="1" vertex="1">
          <mxGeometry x="150" y="530" width="90" height="40" as="geometry" />
        </mxCell>
        <mxCell id="p-GpuDRe2r2PLm1VDFdw-26" value="" style="endArrow=none;html=1;rounded=0;entryX=0;entryY=0.5;entryDx=0;entryDy=0;exitX=0.98;exitY=0.345;exitDx=0;exitDy=0;exitPerimeter=0;" parent="1" source="p-GpuDRe2r2PLm1VDFdw-7" target="p-GpuDRe2r2PLm1VDFdw-1" edge="1">
          <mxGeometry width="50" height="50" relative="1" as="geometry">
            <mxPoint x="260" y="410" as="sourcePoint" />
            <mxPoint x="310" y="360" as="targetPoint" />
          </mxGeometry>
        </mxCell>
        <mxCell id="p-GpuDRe2r2PLm1VDFdw-27" value="" style="endArrow=none;html=1;rounded=0;exitX=1;exitY=0.5;exitDx=0;exitDy=0;entryX=0;entryY=0.25;entryDx=0;entryDy=0;" parent="1" source="p-GpuDRe2r2PLm1VDFdw-6" target="p-GpuDRe2r2PLm1VDFdw-1" edge="1">
          <mxGeometry width="50" height="50" relative="1" as="geometry">
            <mxPoint x="248" y="384" as="sourcePoint" />
            <mxPoint x="310" y="380" as="targetPoint" />
            <Array as="points" />
          </mxGeometry>
        </mxCell>
        <mxCell id="p-GpuDRe2r2PLm1VDFdw-28" value="" style="endArrow=none;html=1;rounded=0;entryX=0;entryY=0;entryDx=0;entryDy=0;exitX=1;exitY=0.5;exitDx=0;exitDy=0;" parent="1" source="p-GpuDRe2r2PLm1VDFdw-5" target="p-GpuDRe2r2PLm1VDFdw-1" edge="1">
          <mxGeometry width="50" height="50" relative="1" as="geometry">
            <mxPoint x="280" y="310" as="sourcePoint" />
            <mxPoint x="330" y="260" as="targetPoint" />
          </mxGeometry>
        </mxCell>
        <mxCell id="p-GpuDRe2r2PLm1VDFdw-29" value="" style="endArrow=none;html=1;rounded=0;entryX=0;entryY=0.75;entryDx=0;entryDy=0;exitX=1;exitY=0.5;exitDx=0;exitDy=0;" parent="1" source="p-GpuDRe2r2PLm1VDFdw-8" target="p-GpuDRe2r2PLm1VDFdw-1" edge="1">
          <mxGeometry width="50" height="50" relative="1" as="geometry">
            <mxPoint x="258" y="394" as="sourcePoint" />
            <mxPoint x="350" y="390" as="targetPoint" />
          </mxGeometry>
        </mxCell>
        <mxCell id="p-GpuDRe2r2PLm1VDFdw-30" value="" style="endArrow=none;html=1;rounded=0;entryX=0;entryY=1;entryDx=0;entryDy=0;exitX=1;exitY=0.5;exitDx=0;exitDy=0;" parent="1" source="p-GpuDRe2r2PLm1VDFdw-19" target="p-GpuDRe2r2PLm1VDFdw-1" edge="1">
          <mxGeometry width="50" height="50" relative="1" as="geometry">
            <mxPoint x="268" y="404" as="sourcePoint" />
            <mxPoint x="360" y="400" as="targetPoint" />
          </mxGeometry>
        </mxCell>
        <mxCell id="p-GpuDRe2r2PLm1VDFdw-31" value="" style="endArrow=none;html=1;rounded=0;entryX=0.25;entryY=1;entryDx=0;entryDy=0;exitX=1;exitY=0.5;exitDx=0;exitDy=0;" parent="1" source="p-GpuDRe2r2PLm1VDFdw-22" target="p-GpuDRe2r2PLm1VDFdw-1" edge="1">
          <mxGeometry width="50" height="50" relative="1" as="geometry">
            <mxPoint x="278" y="414" as="sourcePoint" />
            <mxPoint x="370" y="410" as="targetPoint" />
          </mxGeometry>
        </mxCell>
        <mxCell id="p-GpuDRe2r2PLm1VDFdw-32" value="" style="endArrow=none;html=1;rounded=0;entryX=0.5;entryY=1;entryDx=0;entryDy=0;exitX=1;exitY=0.5;exitDx=0;exitDy=0;" parent="1" source="p-GpuDRe2r2PLm1VDFdw-24" target="p-GpuDRe2r2PLm1VDFdw-1" edge="1">
          <mxGeometry width="50" height="50" relative="1" as="geometry">
            <mxPoint x="288" y="424" as="sourcePoint" />
            <mxPoint x="380" y="420" as="targetPoint" />
          </mxGeometry>
        </mxCell>
        <mxCell id="p-GpuDRe2r2PLm1VDFdw-33" value="" style="endArrow=none;html=1;rounded=0;entryX=0.75;entryY=1;entryDx=0;entryDy=0;exitX=0;exitY=0.5;exitDx=0;exitDy=0;" parent="1" source="p-GpuDRe2r2PLm1VDFdw-23" target="p-GpuDRe2r2PLm1VDFdw-1" edge="1">
          <mxGeometry width="50" height="50" relative="1" as="geometry">
            <mxPoint x="298" y="434" as="sourcePoint" />
            <mxPoint x="390" y="430" as="targetPoint" />
          </mxGeometry>
        </mxCell>
        <mxCell id="p-GpuDRe2r2PLm1VDFdw-34" value="" style="endArrow=none;html=1;rounded=0;entryX=1;entryY=1;entryDx=0;entryDy=0;exitX=-0.033;exitY=0.325;exitDx=0;exitDy=0;exitPerimeter=0;" parent="1" source="p-GpuDRe2r2PLm1VDFdw-21" target="p-GpuDRe2r2PLm1VDFdw-1" edge="1">
          <mxGeometry width="50" height="50" relative="1" as="geometry">
            <mxPoint x="308" y="444" as="sourcePoint" />
            <mxPoint x="400" y="440" as="targetPoint" />
          </mxGeometry>
        </mxCell>
        <mxCell id="p-GpuDRe2r2PLm1VDFdw-35" value="" style="endArrow=none;html=1;rounded=0;exitX=0;exitY=0.5;exitDx=0;exitDy=0;entryX=1;entryY=0.75;entryDx=0;entryDy=0;" parent="1" source="p-GpuDRe2r2PLm1VDFdw-18" target="p-GpuDRe2r2PLm1VDFdw-1" edge="1">
          <mxGeometry width="50" height="50" relative="1" as="geometry">
            <mxPoint x="318" y="454" as="sourcePoint" />
            <mxPoint x="420" y="450" as="targetPoint" />
          </mxGeometry>
        </mxCell>
        <mxCell id="p-GpuDRe2r2PLm1VDFdw-36" value="" style="endArrow=none;html=1;rounded=0;entryX=1;entryY=0.5;entryDx=0;entryDy=0;exitX=0;exitY=0.5;exitDx=0;exitDy=0;" parent="1" source="p-GpuDRe2r2PLm1VDFdw-17" target="p-GpuDRe2r2PLm1VDFdw-1" edge="1">
          <mxGeometry width="50" height="50" relative="1" as="geometry">
            <mxPoint x="328" y="464" as="sourcePoint" />
            <mxPoint x="420" y="460" as="targetPoint" />
          </mxGeometry>
        </mxCell>
        <mxCell id="p-GpuDRe2r2PLm1VDFdw-37" value="" style="endArrow=none;html=1;rounded=0;entryX=1;entryY=0.25;entryDx=0;entryDy=0;exitX=0;exitY=0.5;exitDx=0;exitDy=0;" parent="1" source="p-GpuDRe2r2PLm1VDFdw-16" target="p-GpuDRe2r2PLm1VDFdw-1" edge="1">
          <mxGeometry width="50" height="50" relative="1" as="geometry">
            <mxPoint x="338" y="474" as="sourcePoint" />
            <mxPoint x="430" y="470" as="targetPoint" />
          </mxGeometry>
        </mxCell>
        <mxCell id="p-GpuDRe2r2PLm1VDFdw-38" value="" style="endArrow=none;html=1;rounded=0;entryX=0;entryY=0.5;entryDx=0;entryDy=0;exitX=1;exitY=0;exitDx=0;exitDy=0;" parent="1" source="p-GpuDRe2r2PLm1VDFdw-1" target="p-GpuDRe2r2PLm1VDFdw-15" edge="1">
          <mxGeometry width="50" height="50" relative="1" as="geometry">
            <mxPoint x="348" y="484" as="sourcePoint" />
            <mxPoint x="440" y="480" as="targetPoint" />
          </mxGeometry>
        </mxCell>
        <mxCell id="p-GpuDRe2r2PLm1VDFdw-39" value="" style="endArrow=none;html=1;rounded=0;entryX=0;entryY=0.5;entryDx=0;entryDy=0;exitX=1;exitY=0;exitDx=0;exitDy=0;" parent="1" source="p-GpuDRe2r2PLm1VDFdw-1" target="p-GpuDRe2r2PLm1VDFdw-14" edge="1">
          <mxGeometry width="50" height="50" relative="1" as="geometry">
            <mxPoint x="358" y="494" as="sourcePoint" />
            <mxPoint x="450" y="490" as="targetPoint" />
          </mxGeometry>
        </mxCell>
        <mxCell id="p-GpuDRe2r2PLm1VDFdw-40" value="" style="endArrow=none;html=1;rounded=0;entryX=0;entryY=0.5;entryDx=0;entryDy=0;exitX=1;exitY=0;exitDx=0;exitDy=0;" parent="1" source="p-GpuDRe2r2PLm1VDFdw-1" target="p-GpuDRe2r2PLm1VDFdw-13" edge="1">
          <mxGeometry width="50" height="50" relative="1" as="geometry">
            <mxPoint x="368" y="504" as="sourcePoint" />
            <mxPoint x="460" y="500" as="targetPoint" />
          </mxGeometry>
        </mxCell>
        <mxCell id="p-GpuDRe2r2PLm1VDFdw-41" value="" style="endArrow=none;html=1;rounded=0;entryX=0;entryY=0.5;entryDx=0;entryDy=0;exitX=0.75;exitY=0;exitDx=0;exitDy=0;" parent="1" source="p-GpuDRe2r2PLm1VDFdw-1" target="p-GpuDRe2r2PLm1VDFdw-12" edge="1">
          <mxGeometry width="50" height="50" relative="1" as="geometry">
            <mxPoint x="378" y="514" as="sourcePoint" />
            <mxPoint x="470" y="510" as="targetPoint" />
          </mxGeometry>
        </mxCell>
        <mxCell id="p-GpuDRe2r2PLm1VDFdw-42" value="" style="endArrow=none;html=1;rounded=0;entryX=0.5;entryY=1;entryDx=0;entryDy=0;exitX=0.642;exitY=-0.01;exitDx=0;exitDy=0;exitPerimeter=0;" parent="1" source="p-GpuDRe2r2PLm1VDFdw-1" target="p-GpuDRe2r2PLm1VDFdw-11" edge="1">
          <mxGeometry width="50" height="50" relative="1" as="geometry">
            <mxPoint x="388" y="524" as="sourcePoint" />
            <mxPoint x="480" y="520" as="targetPoint" />
          </mxGeometry>
        </mxCell>
        <mxCell id="p-GpuDRe2r2PLm1VDFdw-43" value="" style="endArrow=none;html=1;rounded=0;entryX=0.5;entryY=1;entryDx=0;entryDy=0;exitX=0.582;exitY=-0.01;exitDx=0;exitDy=0;exitPerimeter=0;" parent="1" source="p-GpuDRe2r2PLm1VDFdw-1" target="p-GpuDRe2r2PLm1VDFdw-10" edge="1">
          <mxGeometry width="50" height="50" relative="1" as="geometry">
            <mxPoint x="398" y="534" as="sourcePoint" />
            <mxPoint x="490" y="530" as="targetPoint" />
          </mxGeometry>
        </mxCell>
        <mxCell id="p-GpuDRe2r2PLm1VDFdw-44" value="" style="endArrow=none;html=1;rounded=0;entryX=0.5;entryY=1;entryDx=0;entryDy=0;exitX=0.5;exitY=0;exitDx=0;exitDy=0;" parent="1" source="p-GpuDRe2r2PLm1VDFdw-1" target="p-GpuDRe2r2PLm1VDFdw-9" edge="1">
          <mxGeometry width="50" height="50" relative="1" as="geometry">
            <mxPoint x="408" y="544" as="sourcePoint" />
            <mxPoint x="500" y="540" as="targetPoint" />
          </mxGeometry>
        </mxCell>
        <mxCell id="p-GpuDRe2r2PLm1VDFdw-45" value="" style="endArrow=none;html=1;rounded=0;entryX=1;entryY=1;entryDx=0;entryDy=0;exitX=0.25;exitY=0;exitDx=0;exitDy=0;" parent="1" source="p-GpuDRe2r2PLm1VDFdw-1" target="p-GpuDRe2r2PLm1VDFdw-2" edge="1">
          <mxGeometry width="50" height="50" relative="1" as="geometry">
            <mxPoint x="418" y="554" as="sourcePoint" />
            <mxPoint x="510" y="550" as="targetPoint" />
          </mxGeometry>
        </mxCell>
        <mxCell id="p-GpuDRe2r2PLm1VDFdw-46" value="" style="endArrow=none;html=1;rounded=0;entryX=1;entryY=0.5;entryDx=0;entryDy=0;exitX=0.25;exitY=0;exitDx=0;exitDy=0;" parent="1" source="p-GpuDRe2r2PLm1VDFdw-1" target="p-GpuDRe2r2PLm1VDFdw-3" edge="1">
          <mxGeometry width="50" height="50" relative="1" as="geometry">
            <mxPoint x="428" y="564" as="sourcePoint" />
            <mxPoint x="520" y="560" as="targetPoint" />
          </mxGeometry>
        </mxCell>
        <mxCell id="p-GpuDRe2r2PLm1VDFdw-47" value="" style="endArrow=none;html=1;rounded=0;entryX=0;entryY=0;entryDx=0;entryDy=0;exitX=1;exitY=0.5;exitDx=0;exitDy=0;" parent="1" source="p-GpuDRe2r2PLm1VDFdw-4" target="p-GpuDRe2r2PLm1VDFdw-1" edge="1">
          <mxGeometry width="50" height="50" relative="1" as="geometry">
            <mxPoint x="438" y="574" as="sourcePoint" />
            <mxPoint x="530" y="570" as="targetPoint" />
          </mxGeometry>
        </mxCell>
        <mxCell id="p-GpuDRe2r2PLm1VDFdw-49" value="评估与建议" style="ellipse;whiteSpace=wrap;html=1;" parent="1" vertex="1">
          <mxGeometry x="150" y="580" width="90" height="40" as="geometry" />
        </mxCell>
        <mxCell id="p-GpuDRe2r2PLm1VDFdw-50" value="肺部" style="ellipse;whiteSpace=wrap;html=1;" parent="1" vertex="1">
          <mxGeometry x="550" y="570" width="90" height="40" as="geometry" />
        </mxCell>
        <mxCell id="p-GpuDRe2r2PLm1VDFdw-51" value="体检医生" style="ellipse;whiteSpace=wrap;html=1;" parent="1" vertex="1">
          <mxGeometry x="250" y="585" width="90" height="40" as="geometry" />
        </mxCell>
        <mxCell id="p-GpuDRe2r2PLm1VDFdw-52" value="该记录的创建时间" style="ellipse;whiteSpace=wrap;html=1;" parent="1" vertex="1">
          <mxGeometry x="345" y="585" width="90" height="40" as="geometry" />
        </mxCell>
        <mxCell id="p-GpuDRe2r2PLm1VDFdw-53" value="该记录的更新时间" style="ellipse;whiteSpace=wrap;html=1;" parent="1" vertex="1">
          <mxGeometry x="440" y="585" width="90" height="40" as="geometry" />
        </mxCell>
        <mxCell id="p-GpuDRe2r2PLm1VDFdw-54" value="" style="endArrow=none;html=1;rounded=0;entryX=0.5;entryY=1;entryDx=0;entryDy=0;exitX=1;exitY=0;exitDx=0;exitDy=0;" parent="1" source="p-GpuDRe2r2PLm1VDFdw-49" target="p-GpuDRe2r2PLm1VDFdw-1" edge="1">
          <mxGeometry width="50" height="50" relative="1" as="geometry">
            <mxPoint x="370" y="540" as="sourcePoint" />
            <mxPoint x="420" y="490" as="targetPoint" />
          </mxGeometry>
        </mxCell>
        <mxCell id="p-GpuDRe2r2PLm1VDFdw-56" value="" style="endArrow=none;html=1;rounded=0;entryX=0.75;entryY=1;entryDx=0;entryDy=0;exitX=0.5;exitY=0;exitDx=0;exitDy=0;" parent="1" source="p-GpuDRe2r2PLm1VDFdw-51" target="p-GpuDRe2r2PLm1VDFdw-1" edge="1">
          <mxGeometry width="50" height="50" relative="1" as="geometry">
            <mxPoint x="237" y="596" as="sourcePoint" />
            <mxPoint x="400" y="410" as="targetPoint" />
          </mxGeometry>
        </mxCell>
        <mxCell id="p-GpuDRe2r2PLm1VDFdw-57" value="" style="endArrow=none;html=1;rounded=0;entryX=0.75;entryY=1;entryDx=0;entryDy=0;exitX=0.5;exitY=0;exitDx=0;exitDy=0;" parent="1" source="p-GpuDRe2r2PLm1VDFdw-52" target="p-GpuDRe2r2PLm1VDFdw-1" edge="1">
          <mxGeometry width="50" height="50" relative="1" as="geometry">
            <mxPoint x="247" y="606" as="sourcePoint" />
            <mxPoint x="410" y="420" as="targetPoint" />
          </mxGeometry>
        </mxCell>
        <mxCell id="p-GpuDRe2r2PLm1VDFdw-58" value="" style="endArrow=none;html=1;rounded=0;exitX=0.5;exitY=0;exitDx=0;exitDy=0;" parent="1" source="p-GpuDRe2r2PLm1VDFdw-53" edge="1">
          <mxGeometry width="50" height="50" relative="1" as="geometry">
            <mxPoint x="257" y="616" as="sourcePoint" />
            <mxPoint x="420" y="400" as="targetPoint" />
          </mxGeometry>
        </mxCell>
        <mxCell id="p-GpuDRe2r2PLm1VDFdw-59" value="" style="endArrow=none;html=1;rounded=0;exitX=0;exitY=0;exitDx=0;exitDy=0;" parent="1" source="p-GpuDRe2r2PLm1VDFdw-50" edge="1">
          <mxGeometry width="50" height="50" relative="1" as="geometry">
            <mxPoint x="267" y="626" as="sourcePoint" />
            <mxPoint x="420" y="400" as="targetPoint" />
          </mxGeometry>
        </mxCell>
      </root>
    </mxGraphModel>
  </diagram>
</mxfile>
